<svg width="422.72mm" height="97.43mm" version="1.1" viewBox="0 0 422.72 97.43" xmlns="http://www.w3.org/2000/svg" xmlns:xlink="http://www.w3.org/1999/xlink">
 <g transform="translate(249.67 198.12)">
  <g transform="matrix(.26458 0 0 .26458 -.00030129 -193.77)" stroke-width="28">
   <g transform="matrix(-.66287 .69913 -.66371 -.70001 863.46 1410.6)"></g>
   <g transform="matrix(.66287 -.69913 .66371 .70001 -543.46 380.47)"></g>
  </g>
  <g transform="matrix(.27282 0 0 .26458 -3.5247 -222.56)" stroke-width="28">
   <g transform="matrix(-.66287 .69913 -.66371 -.70001 863.46 1410.6)"></g>
   <g transform="matrix(.66287 -.69913 .66371 .70001 -543.46 380.47)"></g>
  </g>
  <ellipse cx="-166.51" cy="-141.92" rx="11.333" ry="8.9474" fill="none" style="paint-order:stroke fill markers"/>
  <g transform="translate(-7.3051)" fill="#fff">
   <g transform="scale(1.0154 .98479)" stroke-width=".72982" aria-label="PBRCloud">
    <path d="m-124.84-146.19v-6.6367h15.908q3.421 0 5.4736-2.3605 2.0868-2.3605 2.0868-6.192 0-3.8999-2.0868-6.2604-2.0526-2.3605-5.4736-2.3605h-15.908v-6.6367h15.668q4.5157 0 7.8683 1.9158 3.3526 1.8816 5.1999 5.3025 1.8815 3.421 1.8815 8.0393 0 4.5841-1.8815 8.0051-1.8473 3.421-5.1999 5.3026-3.3526 1.8816-7.8683 1.8816zm-3.592 19.294v-49.741h6.9788v49.741z"/>
    <path d="m-81.395-126.9v-6.4657h13.479q5.542 0 7.8341-2.121 2.3263-2.121 2.3263-5.5762v-0.10263q0-3.6947-1.9842-5.8841-1.95-2.2236-6.4657-2.2236h-15.189v-6.2946h15.189q3.8657 0 5.8157-1.8131 1.9842-1.8473 1.9842-5.371 0-3.7289-2.1894-5.5762-2.1894-1.8473-6.5683-1.8473h-14.231v-6.4657h15.497q7.3551 0 10.947 3.6605 3.592 3.6605 3.592 9.8183 0 3.7289-2.1894 6.842-2.1894 3.0789-6.8762 3.9341 4.6183 0.6842 7.1499 4.071 2.5657 3.3868 2.5657 7.7657v0.10263q0 6.0894-3.9341 9.8183-3.9341 3.7289-10.674 3.7289zm-4.1052 0v-49.741h6.9446v49.741z"/>
    <path d="m-37.23-147.94v-6.6367h16.968q3.0447 0 4.892-2.121 1.8473-2.121 1.8473-5.6104 0-3.4894-1.8473-5.6104-1.8473-2.121-4.892-2.121h-16.968v-6.6367h16.694q4.3447 0 7.5946 1.8131 3.2499 1.7789 5.0289 4.9946 1.8131 3.2157 1.8131 7.5604 0 4.3104-1.8131 7.5604-1.8131 3.2157-5.0631 5.0289-3.2157 1.7789-7.5604 1.7789zm-3.0447 21.039v-49.775h6.9788v49.775zm27.984 0-11.392-22.579 6.9446-1.5737 12.726 24.152z"/>
    <path d="m20.311-126.38q-5.1999 0-9.0998-2.2921-3.8999-2.3263-6.0552-6.4999-2.1552-4.1736-2.1552-9.7498v-13.65q0-5.6104 2.1552-9.784 2.1552-4.1736 6.0552-6.4657 3.8999-2.3263 9.0998-2.3263 4.3105 0 7.8683 1.8473 3.592 1.8473 5.9867 5.1657 2.4289 3.3184 3.2842 7.7657h-7.1499q-0.64999-2.3947-2.1894-4.1736-1.5052-1.8131-3.5578-2.8052-2.0526-0.99209-4.242-0.99209-4.5841 0-7.3894 3.25-2.771 3.2157-2.771 8.5183v13.65q0 5.3026 2.771 8.5183 2.8052 3.2157 7.3894 3.2157 3.2499 0 6.1236-2.0526 2.8736-2.0526 3.8657-5.9183h7.1499q-0.85525 4.4473-3.2842 7.7657t-5.9867 5.1657q-3.5578 1.8473-7.8683 1.8473z"/>
    <path d="m53.666-176.64v40.573q0 1.2658 0.54736 1.9842 0.58157 0.71841 1.6079 0.71841h3.2842v6.6367h-4.1052q-3.9341 0-6.1236-2.4631-2.1894-2.4631-2.1894-6.9446v-40.505z"/>
    <path d="m80.589-126.38q-6.9788 0-10.81-4.0368-3.8315-4.071-3.8315-11.426v-5.7815q0-7.2867 3.8315-11.289 3.8315-4.0026 10.81-4.0026t10.81 4.0026q3.8315 4.0026 3.8315 11.289v5.8841q0 7.3209-3.8315 11.358-3.8315 4.0026-10.81 4.0026zm0-6.6367q3.6605 0 5.6446-2.2921 2.0184-2.2921 2.0184-6.4315v-5.8841q0-4.1394-2.0184-6.3973-1.9842-2.2579-5.6446-2.2579-3.6263 0-5.6446 2.2579-2.0184 2.2578-2.0184 6.3973v5.8841q0 4.1394 2.0184 6.4315 2.0184 2.2921 5.6446 2.2921z"/>
    <path d="m125.71-126.9v-35.51h6.9446v35.51zm-14.437-35.51v21.586q0 3.7289 1.8816 5.7815 1.9158 2.0184 5.371 2.0184 3.4552 0 5.3025-1.8131 1.8816-1.8473 1.8816-5.1657l0.47894 7.4236q-0.95788 2.3947-3.3526 4.3104-2.3947 1.8816-6.2604 1.8816-5.8841 0-9.0998-3.7631-3.1815-3.7973-3.1815-10.674v-21.586z"/>
    <path d="m163.45-126.9v-49.741h6.9788v49.741zm-8.9288 0.61578q-5.8841 0-9.0998-3.7631-3.1815-3.7973-3.1815-10.674v-7.8341q0-6.9104 3.1131-10.674 3.1473-3.7973 8.8262-3.7973 3.1473 0 5.7473 1.6421 2.6342 1.6421 4.242 4.6184l-0.71841 7.2525q0-2.2579-0.82104-3.8657-0.82104-1.6079-2.3947-2.4289-1.5394-0.85525-3.7631-0.85525-3.4552 0-5.371 2.1552-1.8816 2.1552-1.8816 6.0552v7.7314q0 3.8657 1.8816 5.9867 1.9158 2.0868 5.371 2.0868 2.2236 0 3.7631-0.85525 1.5737-0.88946 2.3947-2.5315 0.82104-1.6421 0.82104-3.9341l0.47894 7.492q-0.95788 2.3947-3.3184 4.3104-2.3263 1.8816-6.0894 1.8816z"/>
   </g>
   <g transform="matrix(.28319 0 0 .28319 -235.06 -194.72)">
    <g transform="matrix(.7159 0 0 .71588 44.626 52.293)">
     <path d="m170.83 54.525c-17.74 0.36598-36.685 6.1929-51.119 15.945-10.74 7.2562-25.38 22.528-28.807 30.049-1.0794 2.369-1.3619 2.4203-13.283 2.4043-14.386-0.0193-21.22 1.5325-33.68 7.6465-6.8624 3.3673-10.257 5.9201-17.621 13.25-7.8123 7.776-9.7759 10.438-13.674 18.547-6.1574 12.81-8.1233 22.297-7.4375 35.871 1.6339 32.34 22.402 57.819 53.844 66.053 7.0723 1.8521 11.879 1.9375 112.46 1.9902 115.46 0.0605 109.81 0.33937 121-6.0098 6.539-3.7105 15.463-13.091 18.895-19.863 1.4827-2.926 3.3648-8.5257 4.1816-12.443 3.0893-14.816-2.2143-32.33-13.08-43.195-6.7256-6.7256-18.142-12.405-26.451-13.158-3.3936-0.30772-6.4013-0.93185-6.6836-1.3887-0.28233-0.45683-0.95585-4.7815-1.4961-9.6094-5.3126-47.475-41.841-82.524-89.533-85.906-2.4686-0.17509-4.9773-0.23392-7.5117-0.18164zm-126.56 80.211h35.193c19.956 0 29.934 7.9861 29.934 23.959 0 16.132-11.092 24.199-33.279 24.199h-8.1855v33.4h-23.662zm73.014 0h36.268c18.682 0 28.023 6.6717 28.023 20.016 0 9.4802-5.6375 15.556-16.91 18.225 13.583 2.7086 20.375 9.9181 20.375 21.629 0 14.459-9.1426 21.689-27.426 21.689h-40.33zm76.896 0h35.074c9.1217 0 16.41 1.9331 21.867 5.7969 5.4571 3.8239 8.1856 8.9612 8.1856 15.414 0 9.8785-5.8556 16.311-17.566 19.299 6.0147 2.2306 9.8997 4.6808 11.652 7.3496 1.7925 2.6688 3.0072 7.8474 3.6445 15.535 0.75682 9.1615 2.2893 15.216 4.5996 18.164h-25.691c-1.6331-3.7841-2.4492-8.5059-2.4492-14.162l-0.12109-4.8398-0.11914-6.0938c0-9.4005-3.7834-14.1-11.352-14.1h-4.0625v39.195h-23.662zm-53.236 6.752v28.74h7.291c6.7317 0 10.098-4.9793 10.098-14.938 0-9.2014-3.5653-13.803-10.695-13.803zm-73.012 0.77734v33.1h5.3164c8.6039 0 12.906-5.6957 12.906-17.088 0-10.675-4.3024-16.012-12.906-16.012zm149.91 0v28.082h4.7793c8.9624 0 13.443-4.6803 13.443-14.041s-4.481-14.041-13.443-14.041zm-76.898 34.713v32.564h6.752c8.8429 0 13.266-5.0602 13.266-15.178 0-11.591-4.5619-17.387-13.684-17.387z" fill="#fff"/>
    </g>
    <path d="m151.13 0.00172c-28.364 0-54.917 7.9153-77.615 21.537-6.4725-5.2623-14.605-8.1915-23.068-8.1937a8.7663 8.7661 0 0 0-0.0035 0c-20.155 7.3e-4 -36.68 16.528-36.679 36.682a8.7663 8.7661 0 0 0 0 0.0106c0.0099 8.4147 2.9268 16.483 8.1035 22.927-13.825 22.819-21.866 49.572-21.866 78.161a8.7663 8.7661 0 1 0 17.531 0c0-24.702 6.7195-47.748 18.379-67.574 4.5664 1.9846 9.473 3.1496 14.519 3.1573a8.7663 8.7661 0 0 0 0.01241 0c20.156 6.2e-4 36.684-16.527 36.683-36.682a8.7663 8.7661 0 0 0 0-4e-3c-0.0016-4.9994-1.1387-9.8628-3.0829-14.397 19.718-11.484 42.586-18.095 67.087-18.095a8.7663 8.7661 0 1 0 0-17.531zm-100.69 30.874c5.9131 2e-3 11.191 2.5121 14.836 7.0769a8.7663 8.7661 0 0 0 0.1826 0.21451c2.6716 3.3798 4.1327 7.5531 4.1342 11.863-0.0015 10.677-8.4682 19.144-19.145 19.148-4.3701-8e-3 -8.6013-1.5088-12-4.2546a8.7663 8.7661 0 0 0-0.01241-9e-3c-4.5141-3.6331-7.136-9.0979-7.1444-14.893 0.0025-10.677 8.4703-19.144 19.149-19.146z" color="#000000" color-rendering="auto" image-rendering="auto" shape-rendering="auto" solid-color="#000000" style="isolation:auto;mix-blend-mode:normal;text-decoration-color:#000000;text-decoration-line:none;text-decoration-style:solid;text-indent:0;text-transform:none;white-space:normal"/>
    <path d="m168.87 320c28.364 0 54.917-7.9155 77.616-21.538 6.4726 5.2624 14.605 8.1917 23.068 8.1939a8.7664 8.7662 0 0 0 4e-3 0c20.156-7e-4 36.681-16.528 36.68-36.682a8.7664 8.7662 0 0 0 0-0.011c-0.01-8.4149-2.9268-16.484-8.1036-22.927 13.825-22.82 21.867-49.572 21.867-78.162a8.7664 8.7662 0 1 0-17.531 0c0 24.703-6.7196 47.749-18.379 67.575-4.5665-1.9846-9.4731-3.1496-14.519-3.1573a8.7664 8.7662 0 0 0-0.0124 0c-20.156-6.2e-4 -36.684 16.527-36.683 36.682 2e-3 4.9994 1.1387 9.8628 3.083 14.397-19.718 11.484-42.587 18.095-67.088 18.095a8.7664 8.7662 0 1 0 0 17.531zm100.69-30.875c-5.9132 0-11.191-2.5122-14.836-7.0769a8.7664 8.7662 0 0 0-0.18261-0.2146c-2.6716-3.3799-4.1328-7.5531-4.1342-11.863 2e-3 -10.677 8.4683-19.144 19.145-19.148 4.3701 8e-3 8.6014 1.5088 12 4.2547a8.7664 8.7662 0 0 0 0.0124 9e-3c4.5142 3.6332 7.1361 9.098 7.1445 14.893-3e-3 10.677-8.4704 19.145-19.149 19.146z" color="#000000" color-rendering="auto" image-rendering="auto" shape-rendering="auto" solid-color="#000000" style="isolation:auto;mix-blend-mode:normal;text-decoration-color:#000000;text-decoration-line:none;text-decoration-style:solid;text-indent:0;text-transform:none;white-space:normal"/>
   </g>
  </g>
 </g>
</svg>
